<svg xmlns="http://www.w3.org/2000/svg" viewBox="0 0 24 24" width="256" height="256">
  <defs>
    <linearGradient id="lockGradient" x1="0%" y1="0%" x2="100%" y2="100%">
      <stop offset="0%" style="stop-color:#4CAF50;stop-opacity:1" />
      <stop offset="100%" style="stop-color:#2E7D32;stop-opacity:1" />
    </linearGradient>
  </defs>
  <rect x="2" y="2" width="20" height="20" rx="3" fill="url(#lockGradient)"/>
  <path d="M12 2C9.24 2 7 4.24 7 7v4H6c-1.1 0-2 .9-2 2v8c0 1.1.9 2 2 2h12c1.1 0 2-.9 2-2v-8c0-1.1-.9-2-2-2h-1V7c0-2.76-2.24-5-5-5zm0 2c1.66 0 3 1.34 3 3v4H9V7c0-1.66 1.34-3 3-3zm0 10c1.1 0 2 .9 2 2s-.9 2-2 2-2-.9-2-2 .9-2 2-2z" fill="white"/>
</svg>
